<svg width="86" height="36" viewBox="0 0 86 36" fill="none" xmlns="http://www.w3.org/2000/svg">
<g clip-path="url(#clip0_6066_28766)">
<path fill-rule="evenodd" clip-rule="evenodd" d="M51.0071 0H55.4392V28.3685H59.8838V32.7866H51.0071V0ZM40.7024 23.5264H36.2578V28.3689H45.6979V32.7871H31.8257V10.2471H44.5837V14.6652H36.2578V19.0958H40.7024V23.5264ZM22.5612 28.7801L21.785 28.0063C23.087 26.0967 23.8633 23.7878 23.8633 21.3042C23.8633 14.7394 18.5172 9.41016 11.9316 9.41016C5.34608 9.41016 0 14.7394 0 21.3042C0 27.869 5.34608 33.1982 11.9316 33.1982C14.4231 33.1982 16.7394 32.4369 18.6549 31.1264L22.5612 35.0204L28.8463 28.7551L25.7037 25.6225L22.5612 28.7801ZM11.9191 28.7801C7.77498 28.7801 4.4196 25.4353 4.4196 21.3042C4.4196 17.1731 7.77498 13.8283 11.9191 13.8283C16.0633 13.8283 19.4187 17.1731 19.4187 21.3042C19.4187 25.4353 16.0633 28.7801 11.9191 28.7801ZM81.5554 12.056V10.2464H86V32.7864H81.5554V30.5523C79.5021 32.1998 76.8979 33.1982 74.0558 33.1982C67.4703 33.1982 62.1242 27.869 62.1242 21.3042C62.1242 14.7394 67.4703 9.41016 74.0558 9.41016C76.8979 9.41016 79.5021 10.4086 81.5554 12.056ZM66.5688 21.3042C66.5688 25.4353 69.9242 28.7801 74.0684 28.7801C78.2 28.7801 81.5554 25.4353 81.5679 21.3042C81.5679 17.1731 78.2125 13.8283 74.0684 13.8283C69.9242 13.8283 66.5688 17.1731 66.5688 21.3042Z" fill="#FFDA00"/>
</g>
<defs>
<clipPath id="clip0_6066_28766">
<rect width="86" height="36" fill="white"/>
</clipPath>
</defs>
</svg>
